<svg xmlns="http://www.w3.org/2000/svg" xmlns:xlink="http://www.w3.org/1999/xlink" width="500" zoomAndPan="magnify" viewBox="0 0 375 149.999998" height="200" preserveAspectRatio="xMidYMid meet" version="1.0"><defs><g/><clipPath id="1b177c3ab5"><path d="M 115 16 L 150.472656 16 L 150.472656 58 L 115 58 Z M 115 16 " clip-rule="nonzero"/></clipPath><clipPath id="41a4936ecf"><path d="M 39 13.320312 L 117 13.320312 L 117 107 L 39 107 Z M 39 13.320312 " clip-rule="nonzero"/></clipPath><clipPath id="435f5e5aef"><path d="M 6.472656 25 L 93 25 L 93 131.820312 L 6.472656 131.820312 Z M 6.472656 25 " clip-rule="nonzero"/></clipPath><clipPath id="9e4b58f363"><path d="M 203.40625 69.328125 L 368.886719 69.328125 L 368.886719 128 L 203.40625 128 Z M 203.40625 69.328125 " clip-rule="nonzero"/></clipPath></defs><path fill="#ffffff" d="M 114.710938 40.941406 L 118.867188 40.941406 L 118.867188 45.09375 L 114.710938 45.09375 Z M 118.867188 46.855469 L 118.867188 51.011719 L 114.710938 51.011719 L 114.710938 46.855469 Z M 108.792969 40.941406 L 112.949219 40.941406 L 112.949219 45.09375 L 108.792969 45.09375 Z M 112.949219 46.855469 L 112.949219 51.011719 L 108.792969 51.011719 L 108.792969 46.855469 Z M 112.949219 46.855469 " fill-opacity="1" fill-rule="evenodd"/><g clip-path="url(#1b177c3ab5)"><path fill="#ffffff" d="M 115.980469 21.777344 L 150.785156 57.792969 L 119.761719 16.667969 Z M 115.980469 21.777344 " fill-opacity="1" fill-rule="evenodd"/></g><g clip-path="url(#41a4936ecf)"><path fill="#ffffff" d="M 74.132812 106.105469 L 74.132812 79.523438 L 65.824219 79.523438 L 116.960938 13.320312 L 39.53125 34.070312 L 46.574219 50.433594 L 46.890625 51.183594 L 46.917969 51.242188 L 47.207031 51.964844 L 47.382812 52.339844 L 47.554688 52.714844 L 47.84375 53.464844 L 47.871094 53.492188 L 48.1875 54.273438 L 48.332031 54.5625 L 48.535156 55.050781 L 69.632812 106.394531 Z M 74.132812 106.105469 " fill-opacity="1" fill-rule="evenodd"/></g><g clip-path="url(#435f5e5aef)"><path fill="#ffffff" d="M 17.425781 57.304688 L 22.996094 54.820312 L 54.105469 121.574219 L 73.210938 116.523438 L 51.710938 125.816406 Z M 28.535156 37.359375 L 15.058594 39.871094 L 21.464844 51.414062 L 6.488281 54.417969 L 47.929688 132.019531 L 92.054688 110.78125 L 64.121094 105.730469 L 32.519531 29.972656 L 46.253906 27.144531 L 22.792969 25.238281 Z M 58.058594 115.222656 L 82.15625 111.617188 L 59.386719 109.742188 L 29.949219 40.449219 L 24.667969 41.863281 Z M 58.058594 115.222656 " fill-opacity="1" fill-rule="evenodd"/></g><g fill="#ffffff" fill-opacity="1"><g transform="translate(87.171733, 83.01912)"><g><path d="M 17.03125 -1.296875 C 16.632812 -0.703125 16.238281 -0.273438 15.84375 -0.015625 C 15.445312 0.234375 14.925781 0.359375 14.28125 0.359375 C 13.570312 0.359375 12.988281 0.15625 12.53125 -0.25 C 12.070312 -0.664062 11.734375 -1.390625 11.515625 -2.421875 L 10.9375 -5 C 10.738281 -5.894531 10.546875 -6.582031 10.359375 -7.0625 C 10.179688 -7.550781 9.910156 -7.941406 9.546875 -8.234375 C 9.191406 -8.523438 8.6875 -8.671875 8.03125 -8.671875 L 5.578125 -8.671875 L 5.578125 -2.734375 C 5.578125 -2.078125 5.628906 -1.601562 5.734375 -1.3125 C 5.835938 -1.019531 6.03125 -0.820312 6.3125 -0.71875 C 6.59375 -0.613281 7.046875 -0.546875 7.671875 -0.515625 L 7.671875 0 C 6.878906 -0.0507812 5.785156 -0.078125 4.390625 -0.078125 C 2.910156 -0.078125 1.804688 -0.0507812 1.078125 0 L 1.078125 -0.515625 C 1.703125 -0.546875 2.15625 -0.613281 2.4375 -0.71875 C 2.71875 -0.820312 2.910156 -1.019531 3.015625 -1.3125 C 3.117188 -1.601562 3.171875 -2.078125 3.171875 -2.734375 L 3.171875 -15.53125 C 3.171875 -16.1875 3.117188 -16.660156 3.015625 -16.953125 C 2.910156 -17.242188 2.71875 -17.441406 2.4375 -17.546875 C 2.15625 -17.648438 1.703125 -17.722656 1.078125 -17.765625 L 1.078125 -18.28125 C 1.804688 -18.226562 2.859375 -18.203125 4.234375 -18.203125 L 7.015625 -18.21875 C 7.347656 -18.238281 7.71875 -18.25 8.125 -18.25 C 10.125 -18.25 11.660156 -17.832031 12.734375 -17 C 13.816406 -16.164062 14.359375 -15.085938 14.359375 -13.765625 C 14.359375 -13.085938 14.195312 -12.410156 13.875 -11.734375 C 13.550781 -11.054688 13.015625 -10.445312 12.265625 -9.90625 C 11.523438 -9.363281 10.550781 -8.992188 9.34375 -8.796875 L 9.65625 -8.75 C 10.789062 -8.5625 11.613281 -8.21875 12.125 -7.71875 C 12.644531 -7.21875 13.023438 -6.425781 13.265625 -5.34375 L 13.90625 -2.703125 C 14.082031 -1.910156 14.265625 -1.359375 14.453125 -1.046875 C 14.640625 -0.742188 14.898438 -0.59375 15.234375 -0.59375 C 15.523438 -0.59375 15.769531 -0.671875 15.96875 -0.828125 C 16.164062 -0.984375 16.394531 -1.234375 16.65625 -1.578125 Z M 7.484375 -17.765625 C 6.953125 -17.765625 6.550781 -17.703125 6.28125 -17.578125 C 6.019531 -17.453125 5.835938 -17.234375 5.734375 -16.921875 C 5.628906 -16.617188 5.578125 -16.15625 5.578125 -15.53125 L 5.578125 -9.1875 L 7.3125 -9.1875 C 9.007812 -9.1875 10.175781 -9.5625 10.8125 -10.3125 C 11.445312 -11.070312 11.765625 -12.125 11.765625 -13.46875 C 11.765625 -14.882812 11.425781 -15.953125 10.75 -16.671875 C 10.082031 -17.398438 8.992188 -17.765625 7.484375 -17.765625 Z M 7.484375 -17.765625 "/></g></g></g><g fill="#ffffff" fill-opacity="1"><g transform="translate(101.699076, 83.01912)"><g><path d="M 9.3125 -16.0625 C 10.894531 -16.0625 12.285156 -15.742188 13.484375 -15.109375 C 14.679688 -14.484375 15.609375 -13.5625 16.265625 -12.34375 C 16.921875 -11.132812 17.25 -9.6875 17.25 -8 C 17.25 -6.351562 16.90625 -4.894531 16.21875 -3.625 C 15.539062 -2.363281 14.597656 -1.382812 13.390625 -0.6875 C 12.191406 0.0078125 10.828125 0.359375 9.296875 0.359375 C 7.710938 0.359375 6.320312 0.046875 5.125 -0.578125 C 3.925781 -1.203125 3 -2.117188 2.34375 -3.328125 C 1.695312 -4.546875 1.375 -6 1.375 -7.6875 C 1.375 -9.34375 1.710938 -10.800781 2.390625 -12.0625 C 3.066406 -13.332031 4.003906 -14.316406 5.203125 -15.015625 C 6.410156 -15.710938 7.78125 -16.0625 9.3125 -16.0625 Z M 9.21875 -15.59375 C 8.164062 -15.59375 7.238281 -15.257812 6.4375 -14.59375 C 5.632812 -13.9375 5.019531 -13.015625 4.59375 -11.828125 C 4.164062 -10.648438 3.953125 -9.304688 3.953125 -7.796875 C 3.953125 -6.265625 4.191406 -4.910156 4.671875 -3.734375 C 5.148438 -2.566406 5.800781 -1.671875 6.625 -1.046875 C 7.457031 -0.421875 8.378906 -0.109375 9.390625 -0.109375 C 10.441406 -0.109375 11.367188 -0.4375 12.171875 -1.09375 C 12.972656 -1.757812 13.585938 -2.679688 14.015625 -3.859375 C 14.441406 -5.035156 14.65625 -6.382812 14.65625 -7.90625 C 14.65625 -9.4375 14.414062 -10.785156 13.9375 -11.953125 C 13.457031 -13.117188 12.800781 -14.015625 11.96875 -14.640625 C 11.144531 -15.273438 10.226562 -15.59375 9.21875 -15.59375 Z M 9.21875 -15.59375 "/></g></g></g><g fill="#ffffff" fill-opacity="1"><g transform="translate(118.110268, 83.01912)"><g><path d="M 12.546875 -15.59375 C 13.523438 -15.59375 14.1875 -15.625 14.53125 -15.6875 L 14.53125 -15.15625 C 14.238281 -15.082031 13.972656 -14.914062 13.734375 -14.65625 C 13.492188 -14.40625 13.207031 -13.984375 12.875 -13.390625 L 8.828125 -6.140625 L 8.828125 -2.734375 C 8.828125 -2.078125 8.878906 -1.601562 8.984375 -1.3125 C 9.085938 -1.019531 9.28125 -0.820312 9.5625 -0.71875 C 9.84375 -0.613281 10.296875 -0.546875 10.921875 -0.515625 L 10.921875 0 C 10.128906 -0.0507812 9.035156 -0.078125 7.640625 -0.078125 C 6.160156 -0.078125 5.0625 -0.0507812 4.34375 0 L 4.34375 -0.515625 C 4.957031 -0.546875 5.40625 -0.613281 5.6875 -0.71875 C 5.976562 -0.820312 6.171875 -1.019531 6.265625 -1.3125 C 6.367188 -1.601562 6.421875 -2.078125 6.421875 -2.734375 L 6.421875 -5.421875 L 1.453125 -13.703125 C 1.117188 -14.253906 0.84375 -14.617188 0.625 -14.796875 C 0.414062 -14.984375 0.191406 -15.101562 -0.046875 -15.15625 L -0.046875 -15.6875 C 1.046875 -15.625 1.800781 -15.59375 2.21875 -15.59375 C 3.40625 -15.59375 4.609375 -15.625 5.828125 -15.6875 L 5.828125 -15.15625 C 5.242188 -15.15625 4.796875 -15.109375 4.484375 -15.015625 C 4.179688 -14.921875 4.03125 -14.707031 4.03125 -14.375 C 4.03125 -14.082031 4.175781 -13.679688 4.46875 -13.171875 L 8.359375 -6.65625 L 11.5625 -12.28125 C 11.9375 -12.96875 12.125 -13.519531 12.125 -13.9375 C 12.125 -14.65625 11.53125 -15.0625 10.34375 -15.15625 L 10.34375 -15.6875 C 10.988281 -15.625 11.722656 -15.59375 12.546875 -15.59375 Z M 12.546875 -15.59375 "/></g></g></g><g fill="#ffffff" fill-opacity="1"><g transform="translate(130.702148, 83.01912)"><g/></g></g><g fill="#ffffff" fill-opacity="1"><g transform="translate(134.932834, 83.01912)"><g><path d="M 9.703125 -18.640625 C 10.722656 -18.640625 11.554688 -18.492188 12.203125 -18.203125 C 12.859375 -17.921875 13.578125 -17.503906 14.359375 -16.953125 C 14.578125 -16.785156 14.75 -16.703125 14.875 -16.703125 C 15.195312 -16.703125 15.410156 -17.226562 15.515625 -18.28125 L 16.109375 -18.28125 C 16.035156 -17.15625 16 -15.175781 16 -12.34375 L 15.40625 -12.34375 C 15.25 -13.25 15.082031 -14 14.90625 -14.59375 C 14.738281 -15.1875 14.476562 -15.707031 14.125 -16.15625 C 13.625 -16.78125 12.972656 -17.269531 12.171875 -17.625 C 11.367188 -17.988281 10.53125 -18.171875 9.65625 -18.171875 C 8.519531 -18.171875 7.519531 -17.800781 6.65625 -17.0625 C 5.800781 -16.320312 5.140625 -15.265625 4.671875 -13.890625 C 4.203125 -12.523438 3.96875 -10.929688 3.96875 -9.109375 C 3.96875 -6.015625 4.460938 -3.75 5.453125 -2.3125 C 6.441406 -0.875 8 -0.15625 10.125 -0.15625 C 11.15625 -0.15625 12.046875 -0.421875 12.796875 -0.953125 C 13.109375 -1.160156 13.3125 -1.363281 13.40625 -1.5625 C 13.5 -1.757812 13.546875 -2.03125 13.546875 -2.375 L 13.546875 -4.859375 C 13.546875 -5.578125 13.476562 -6.097656 13.34375 -6.421875 C 13.207031 -6.753906 12.96875 -6.976562 12.625 -7.09375 C 12.28125 -7.21875 11.71875 -7.296875 10.9375 -7.328125 L 10.9375 -7.84375 C 11.832031 -7.789062 13.046875 -7.765625 14.578125 -7.765625 C 15.753906 -7.765625 16.648438 -7.789062 17.265625 -7.84375 L 17.265625 -7.328125 C 16.867188 -7.296875 16.578125 -7.226562 16.390625 -7.125 C 16.210938 -7.019531 16.09375 -6.820312 16.03125 -6.53125 C 15.976562 -6.238281 15.953125 -5.765625 15.953125 -5.109375 L 15.953125 0 L 15.4375 0 C 15.414062 -0.34375 15.34375 -0.671875 15.21875 -0.984375 C 15.101562 -1.304688 14.941406 -1.46875 14.734375 -1.46875 C 14.628906 -1.46875 14.523438 -1.441406 14.421875 -1.390625 C 14.328125 -1.335938 14.148438 -1.21875 13.890625 -1.03125 C 13.285156 -0.5625 12.660156 -0.210938 12.015625 0.015625 C 11.367188 0.242188 10.648438 0.359375 9.859375 0.359375 C 8.085938 0.359375 6.566406 -0.00390625 5.296875 -0.734375 C 4.035156 -1.460938 3.066406 -2.515625 2.390625 -3.890625 C 1.722656 -5.273438 1.390625 -6.921875 1.390625 -8.828125 C 1.390625 -10.785156 1.742188 -12.507812 2.453125 -14 C 3.171875 -15.488281 4.160156 -16.632812 5.421875 -17.4375 C 6.679688 -18.238281 8.109375 -18.640625 9.703125 -18.640625 Z M 9.703125 -18.640625 "/></g></g></g><g fill="#ffffff" fill-opacity="1"><g transform="translate(150.879523, 83.01912)"><g><path d="M 16.3125 -1.078125 C 15.988281 -0.617188 15.613281 -0.265625 15.1875 -0.015625 C 14.769531 0.234375 14.269531 0.359375 13.6875 0.359375 C 12.238281 0.359375 11.347656 -0.289062 11.015625 -1.59375 L 10.21875 -4.828125 C 9.976562 -5.785156 9.617188 -6.425781 9.140625 -6.75 C 8.671875 -7.082031 7.972656 -7.25 7.046875 -7.25 L 5.578125 -7.25 L 5.578125 -2.734375 C 5.578125 -2.078125 5.628906 -1.601562 5.734375 -1.3125 C 5.835938 -1.019531 6.03125 -0.820312 6.3125 -0.71875 C 6.59375 -0.613281 7.046875 -0.546875 7.671875 -0.515625 L 7.671875 0 C 6.878906 -0.0507812 5.785156 -0.078125 4.390625 -0.078125 C 2.910156 -0.078125 1.804688 -0.0507812 1.078125 0 L 1.078125 -0.515625 C 1.703125 -0.546875 2.15625 -0.613281 2.4375 -0.71875 C 2.71875 -0.820312 2.910156 -1.019531 3.015625 -1.3125 C 3.117188 -1.601562 3.171875 -2.078125 3.171875 -2.734375 L 3.171875 -12.953125 C 3.171875 -13.609375 3.117188 -14.082031 3.015625 -14.375 C 2.910156 -14.664062 2.71875 -14.863281 2.4375 -14.96875 C 2.15625 -15.070312 1.703125 -15.140625 1.078125 -15.171875 L 1.078125 -15.6875 C 1.804688 -15.632812 2.859375 -15.609375 4.234375 -15.609375 L 6.859375 -15.640625 C 7.160156 -15.660156 7.5 -15.671875 7.875 -15.671875 C 9.800781 -15.671875 11.273438 -15.304688 12.296875 -14.578125 C 13.316406 -13.859375 13.828125 -12.921875 13.828125 -11.765625 C 13.828125 -10.765625 13.425781 -9.851562 12.625 -9.03125 C 11.832031 -8.207031 10.523438 -7.679688 8.703125 -7.453125 C 9.046875 -7.421875 9.335938 -7.390625 9.578125 -7.359375 C 10.484375 -7.222656 11.203125 -6.945312 11.734375 -6.53125 C 12.273438 -6.113281 12.65625 -5.453125 12.875 -4.546875 L 13.453125 -2.1875 C 13.585938 -1.59375 13.734375 -1.171875 13.890625 -0.921875 C 14.054688 -0.671875 14.269531 -0.546875 14.53125 -0.546875 C 14.957031 -0.546875 15.429688 -0.835938 15.953125 -1.421875 Z M 7.234375 -15.171875 C 6.765625 -15.171875 6.410156 -15.109375 6.171875 -14.984375 C 5.941406 -14.867188 5.785156 -14.65625 5.703125 -14.34375 C 5.617188 -14.039062 5.578125 -13.578125 5.578125 -12.953125 L 5.578125 -7.765625 L 7.3125 -7.765625 C 8.820312 -7.765625 9.851562 -8.085938 10.40625 -8.734375 C 10.96875 -9.378906 11.25 -10.296875 11.25 -11.484375 C 11.25 -12.722656 10.9375 -13.644531 10.3125 -14.25 C 9.6875 -14.863281 8.660156 -15.171875 7.234375 -15.171875 Z M 7.234375 -15.171875 "/></g></g></g><g fill="#ffffff" fill-opacity="1"><g transform="translate(164.787531, 83.01912)"><g><path d="M 9.3125 -16.0625 C 10.894531 -16.0625 12.285156 -15.742188 13.484375 -15.109375 C 14.679688 -14.484375 15.609375 -13.5625 16.265625 -12.34375 C 16.921875 -11.132812 17.25 -9.6875 17.25 -8 C 17.25 -6.351562 16.90625 -4.894531 16.21875 -3.625 C 15.539062 -2.363281 14.597656 -1.382812 13.390625 -0.6875 C 12.191406 0.0078125 10.828125 0.359375 9.296875 0.359375 C 7.710938 0.359375 6.320312 0.046875 5.125 -0.578125 C 3.925781 -1.203125 3 -2.117188 2.34375 -3.328125 C 1.695312 -4.546875 1.375 -6 1.375 -7.6875 C 1.375 -9.34375 1.710938 -10.800781 2.390625 -12.0625 C 3.066406 -13.332031 4.003906 -14.316406 5.203125 -15.015625 C 6.410156 -15.710938 7.78125 -16.0625 9.3125 -16.0625 Z M 9.21875 -15.59375 C 8.164062 -15.59375 7.238281 -15.257812 6.4375 -14.59375 C 5.632812 -13.9375 5.019531 -13.015625 4.59375 -11.828125 C 4.164062 -10.648438 3.953125 -9.304688 3.953125 -7.796875 C 3.953125 -6.265625 4.191406 -4.910156 4.671875 -3.734375 C 5.148438 -2.566406 5.800781 -1.671875 6.625 -1.046875 C 7.457031 -0.421875 8.378906 -0.109375 9.390625 -0.109375 C 10.441406 -0.109375 11.367188 -0.4375 12.171875 -1.09375 C 12.972656 -1.757812 13.585938 -2.679688 14.015625 -3.859375 C 14.441406 -5.035156 14.65625 -6.382812 14.65625 -7.90625 C 14.65625 -9.4375 14.414062 -10.785156 13.9375 -11.953125 C 13.457031 -13.117188 12.800781 -14.015625 11.96875 -14.640625 C 11.144531 -15.273438 10.226562 -15.59375 9.21875 -15.59375 Z M 9.21875 -15.59375 "/></g></g></g><g fill="#ffffff" fill-opacity="1"><g transform="translate(181.198726, 83.01912)"><g><path d="M 16.34375 -15.171875 C 15.738281 -15.140625 15.289062 -15.050781 15 -14.90625 C 14.707031 -14.757812 14.507812 -14.519531 14.40625 -14.1875 C 14.300781 -13.851562 14.25 -13.359375 14.25 -12.703125 L 14.25 -7 C 14.25 -5.8125 14.164062 -4.796875 14 -3.953125 C 13.84375 -3.117188 13.570312 -2.394531 13.1875 -1.78125 C 12.78125 -1.125 12.179688 -0.601562 11.390625 -0.21875 C 10.609375 0.164062 9.71875 0.359375 8.71875 0.359375 C 6.945312 0.359375 5.585938 -0.0195312 4.640625 -0.78125 C 3.890625 -1.445312 3.382812 -2.207031 3.125 -3.0625 C 2.863281 -3.925781 2.734375 -5.210938 2.734375 -6.921875 L 2.734375 -12.953125 C 2.734375 -13.609375 2.679688 -14.082031 2.578125 -14.375 C 2.472656 -14.664062 2.28125 -14.863281 2 -14.96875 C 1.71875 -15.070312 1.265625 -15.140625 0.640625 -15.171875 L 0.640625 -15.6875 C 1.367188 -15.632812 2.472656 -15.609375 3.953125 -15.609375 C 5.328125 -15.609375 6.421875 -15.632812 7.234375 -15.6875 L 7.234375 -15.171875 C 6.609375 -15.140625 6.15625 -15.070312 5.875 -14.96875 C 5.59375 -14.863281 5.398438 -14.664062 5.296875 -14.375 C 5.191406 -14.082031 5.140625 -13.609375 5.140625 -12.953125 L 5.140625 -6.484375 C 5.140625 -5.203125 5.222656 -4.144531 5.390625 -3.3125 C 5.566406 -2.476562 5.929688 -1.804688 6.484375 -1.296875 C 7.046875 -0.796875 7.867188 -0.546875 8.953125 -0.546875 C 10.671875 -0.546875 11.882812 -1.085938 12.59375 -2.171875 C 13.300781 -3.253906 13.65625 -4.769531 13.65625 -6.71875 L 13.65625 -12.703125 C 13.65625 -13.628906 13.484375 -14.265625 13.140625 -14.609375 C 12.804688 -14.953125 12.195312 -15.140625 11.3125 -15.171875 L 11.3125 -15.6875 C 11.925781 -15.632812 12.800781 -15.609375 13.9375 -15.609375 C 14.96875 -15.609375 15.769531 -15.632812 16.34375 -15.6875 Z M 16.34375 -15.171875 "/></g></g></g><g fill="#ffffff" fill-opacity="1"><g transform="translate(195.984134, 83.01912)"><g><path d="M 5.578125 -6.34375 L 5.578125 -2.734375 C 5.578125 -2.078125 5.628906 -1.601562 5.734375 -1.3125 C 5.835938 -1.019531 6.03125 -0.820312 6.3125 -0.71875 C 6.59375 -0.613281 7.046875 -0.546875 7.671875 -0.515625 L 7.671875 0 C 6.878906 -0.0507812 5.785156 -0.078125 4.390625 -0.078125 C 2.910156 -0.078125 1.804688 -0.0507812 1.078125 0 L 1.078125 -0.515625 C 1.703125 -0.546875 2.15625 -0.613281 2.4375 -0.71875 C 2.71875 -0.820312 2.910156 -1.019531 3.015625 -1.3125 C 3.117188 -1.601562 3.171875 -2.078125 3.171875 -2.734375 L 3.171875 -12.953125 C 3.171875 -13.609375 3.117188 -14.082031 3.015625 -14.375 C 2.910156 -14.664062 2.71875 -14.863281 2.4375 -14.96875 C 2.15625 -15.070312 1.703125 -15.140625 1.078125 -15.171875 L 1.078125 -15.6875 C 1.804688 -15.632812 2.859375 -15.609375 4.234375 -15.609375 L 7.015625 -15.640625 C 7.347656 -15.660156 7.71875 -15.671875 8.125 -15.671875 C 9.96875 -15.671875 11.378906 -15.273438 12.359375 -14.484375 C 13.335938 -13.703125 13.828125 -12.660156 13.828125 -11.359375 C 13.828125 -10.535156 13.625 -9.742188 13.21875 -8.984375 C 12.820312 -8.222656 12.132812 -7.59375 11.15625 -7.09375 C 10.1875 -6.59375 8.90625 -6.34375 7.3125 -6.34375 Z M 7.484375 -15.171875 C 6.953125 -15.171875 6.550781 -15.109375 6.28125 -14.984375 C 6.019531 -14.867188 5.835938 -14.65625 5.734375 -14.34375 C 5.628906 -14.039062 5.578125 -13.578125 5.578125 -12.953125 L 5.578125 -6.859375 L 7.046875 -6.859375 C 8.628906 -6.859375 9.722656 -7.238281 10.328125 -8 C 10.941406 -8.757812 11.25 -9.785156 11.25 -11.078125 C 11.25 -12.472656 10.957031 -13.503906 10.375 -14.171875 C 9.789062 -14.835938 8.828125 -15.171875 7.484375 -15.171875 Z M 7.484375 -15.171875 "/></g></g></g><g fill="#ffffff" fill-opacity="1"><g transform="translate(208.395378, 83.01912)"><g/></g></g><g fill="#ffffff" fill-opacity="1"><g transform="translate(212.626068, 83.01912)"><g><path d="M 9.3125 -16.0625 C 10.894531 -16.0625 12.285156 -15.742188 13.484375 -15.109375 C 14.679688 -14.484375 15.609375 -13.5625 16.265625 -12.34375 C 16.921875 -11.132812 17.25 -9.6875 17.25 -8 C 17.25 -6.351562 16.90625 -4.894531 16.21875 -3.625 C 15.539062 -2.363281 14.597656 -1.382812 13.390625 -0.6875 C 12.191406 0.0078125 10.828125 0.359375 9.296875 0.359375 C 7.710938 0.359375 6.320312 0.046875 5.125 -0.578125 C 3.925781 -1.203125 3 -2.117188 2.34375 -3.328125 C 1.695312 -4.546875 1.375 -6 1.375 -7.6875 C 1.375 -9.34375 1.710938 -10.800781 2.390625 -12.0625 C 3.066406 -13.332031 4.003906 -14.316406 5.203125 -15.015625 C 6.410156 -15.710938 7.78125 -16.0625 9.3125 -16.0625 Z M 9.21875 -15.59375 C 8.164062 -15.59375 7.238281 -15.257812 6.4375 -14.59375 C 5.632812 -13.9375 5.019531 -13.015625 4.59375 -11.828125 C 4.164062 -10.648438 3.953125 -9.304688 3.953125 -7.796875 C 3.953125 -6.265625 4.191406 -4.910156 4.671875 -3.734375 C 5.148438 -2.566406 5.800781 -1.671875 6.625 -1.046875 C 7.457031 -0.421875 8.378906 -0.109375 9.390625 -0.109375 C 10.441406 -0.109375 11.367188 -0.4375 12.171875 -1.09375 C 12.972656 -1.757812 13.585938 -2.679688 14.015625 -3.859375 C 14.441406 -5.035156 14.65625 -6.382812 14.65625 -7.90625 C 14.65625 -9.4375 14.414062 -10.785156 13.9375 -11.953125 C 13.457031 -13.117188 12.800781 -14.015625 11.96875 -14.640625 C 11.144531 -15.273438 10.226562 -15.59375 9.21875 -15.59375 Z M 9.21875 -15.59375 "/></g></g></g><g fill="#ffffff" fill-opacity="1"><g transform="translate(229.037264, 83.01912)"><g><path d="M 13.453125 -15.6875 C 13.328125 -14.65625 13.265625 -13.726562 13.265625 -12.90625 C 13.265625 -12.238281 13.289062 -11.707031 13.34375 -11.3125 L 12.75 -11.3125 C 12.632812 -12.71875 12.335938 -13.695312 11.859375 -14.25 C 11.390625 -14.8125 10.617188 -15.09375 9.546875 -15.09375 L 7.671875 -15.09375 C 7.046875 -15.09375 6.59375 -15.046875 6.3125 -14.953125 C 6.03125 -14.859375 5.835938 -14.664062 5.734375 -14.375 C 5.628906 -14.082031 5.578125 -13.609375 5.578125 -12.953125 L 5.578125 -8.15625 L 7.71875 -8.15625 C 8.269531 -8.15625 8.691406 -8.296875 8.984375 -8.578125 C 9.273438 -8.867188 9.472656 -9.179688 9.578125 -9.515625 C 9.679688 -9.847656 9.773438 -10.273438 9.859375 -10.796875 L 10.453125 -10.796875 C 10.398438 -10.203125 10.375 -9.5625 10.375 -8.875 L 10.375 -7.90625 C 10.375 -7.226562 10.425781 -6.257812 10.53125 -5 L 9.9375 -5 C 9.832031 -5.832031 9.632812 -6.476562 9.34375 -6.9375 C 9.050781 -7.40625 8.507812 -7.640625 7.71875 -7.640625 L 5.578125 -7.640625 L 5.578125 -2.734375 C 5.578125 -2.078125 5.644531 -1.601562 5.78125 -1.3125 C 5.914062 -1.019531 6.15625 -0.820312 6.5 -0.71875 C 6.84375 -0.613281 7.40625 -0.546875 8.1875 -0.515625 L 8.1875 0 C 7.289062 -0.0507812 6.023438 -0.078125 4.390625 -0.078125 C 2.910156 -0.078125 1.804688 -0.0507812 1.078125 0 L 1.078125 -0.515625 C 1.703125 -0.546875 2.15625 -0.613281 2.4375 -0.71875 C 2.71875 -0.820312 2.910156 -1.019531 3.015625 -1.3125 C 3.117188 -1.601562 3.171875 -2.078125 3.171875 -2.734375 L 3.171875 -12.953125 C 3.171875 -13.609375 3.117188 -14.082031 3.015625 -14.375 C 2.910156 -14.664062 2.71875 -14.863281 2.4375 -14.96875 C 2.15625 -15.070312 1.703125 -15.140625 1.078125 -15.171875 L 1.078125 -15.6875 C 2.710938 -15.632812 5.125 -15.609375 8.3125 -15.609375 C 10.71875 -15.609375 12.429688 -15.632812 13.453125 -15.6875 Z M 13.453125 -15.6875 "/></g></g></g><g fill="#ffffff" fill-opacity="1"><g transform="translate(241.06141, 83.01912)"><g/></g></g><g fill="#ffffff" fill-opacity="1"><g transform="translate(245.2921, 83.01912)"><g><path d="M 18.453125 -17.765625 C 17.835938 -17.722656 17.382812 -17.648438 17.09375 -17.546875 C 16.8125 -17.441406 16.617188 -17.242188 16.515625 -16.953125 C 16.410156 -16.660156 16.359375 -16.1875 16.359375 -15.53125 L 16.359375 -2.734375 C 16.359375 -2.078125 16.410156 -1.601562 16.515625 -1.3125 C 16.617188 -1.019531 16.8125 -0.820312 17.09375 -0.71875 C 17.382812 -0.613281 17.835938 -0.546875 18.453125 -0.515625 L 18.453125 0 C 17.734375 -0.0507812 16.632812 -0.078125 15.15625 -0.078125 C 13.757812 -0.078125 12.664062 -0.0507812 11.875 0 L 11.875 -0.515625 C 12.488281 -0.546875 12.9375 -0.613281 13.21875 -0.71875 C 13.507812 -0.820312 13.707031 -1.019531 13.8125 -1.3125 C 13.914062 -1.601562 13.96875 -2.078125 13.96875 -2.734375 L 13.96875 -8.9375 L 5.578125 -8.9375 L 5.578125 -2.734375 C 5.578125 -2.078125 5.628906 -1.601562 5.734375 -1.3125 C 5.835938 -1.019531 6.03125 -0.820312 6.3125 -0.71875 C 6.59375 -0.613281 7.046875 -0.546875 7.671875 -0.515625 L 7.671875 0 C 6.878906 -0.0507812 5.785156 -0.078125 4.390625 -0.078125 C 2.910156 -0.078125 1.804688 -0.0507812 1.078125 0 L 1.078125 -0.515625 C 1.703125 -0.546875 2.15625 -0.613281 2.4375 -0.71875 C 2.71875 -0.820312 2.910156 -1.019531 3.015625 -1.3125 C 3.117188 -1.601562 3.171875 -2.078125 3.171875 -2.734375 L 3.171875 -15.53125 C 3.171875 -16.1875 3.117188 -16.660156 3.015625 -16.953125 C 2.910156 -17.242188 2.71875 -17.441406 2.4375 -17.546875 C 2.15625 -17.648438 1.703125 -17.722656 1.078125 -17.765625 L 1.078125 -18.28125 C 1.804688 -18.226562 2.910156 -18.203125 4.390625 -18.203125 C 5.765625 -18.203125 6.859375 -18.226562 7.671875 -18.28125 L 7.671875 -17.765625 C 7.046875 -17.722656 6.59375 -17.648438 6.3125 -17.546875 C 6.03125 -17.441406 5.835938 -17.242188 5.734375 -16.953125 C 5.628906 -16.660156 5.578125 -16.1875 5.578125 -15.53125 L 5.578125 -9.453125 L 13.96875 -9.453125 L 13.96875 -15.53125 C 13.96875 -16.1875 13.914062 -16.660156 13.8125 -16.953125 C 13.707031 -17.242188 13.507812 -17.441406 13.21875 -17.546875 C 12.9375 -17.648438 12.488281 -17.722656 11.875 -17.765625 L 11.875 -18.28125 C 12.664062 -18.226562 13.757812 -18.203125 15.15625 -18.203125 C 16.632812 -18.203125 17.734375 -18.226562 18.453125 -18.28125 Z M 18.453125 -17.765625 "/></g></g></g><g fill="#ffffff" fill-opacity="1"><g transform="translate(262.632322, 83.01912)"><g><path d="M 9.3125 -16.0625 C 10.894531 -16.0625 12.285156 -15.742188 13.484375 -15.109375 C 14.679688 -14.484375 15.609375 -13.5625 16.265625 -12.34375 C 16.921875 -11.132812 17.25 -9.6875 17.25 -8 C 17.25 -6.351562 16.90625 -4.894531 16.21875 -3.625 C 15.539062 -2.363281 14.597656 -1.382812 13.390625 -0.6875 C 12.191406 0.0078125 10.828125 0.359375 9.296875 0.359375 C 7.710938 0.359375 6.320312 0.046875 5.125 -0.578125 C 3.925781 -1.203125 3 -2.117188 2.34375 -3.328125 C 1.695312 -4.546875 1.375 -6 1.375 -7.6875 C 1.375 -9.34375 1.710938 -10.800781 2.390625 -12.0625 C 3.066406 -13.332031 4.003906 -14.316406 5.203125 -15.015625 C 6.410156 -15.710938 7.78125 -16.0625 9.3125 -16.0625 Z M 9.21875 -15.59375 C 8.164062 -15.59375 7.238281 -15.257812 6.4375 -14.59375 C 5.632812 -13.9375 5.019531 -13.015625 4.59375 -11.828125 C 4.164062 -10.648438 3.953125 -9.304688 3.953125 -7.796875 C 3.953125 -6.265625 4.191406 -4.910156 4.671875 -3.734375 C 5.148438 -2.566406 5.800781 -1.671875 6.625 -1.046875 C 7.457031 -0.421875 8.378906 -0.109375 9.390625 -0.109375 C 10.441406 -0.109375 11.367188 -0.4375 12.171875 -1.09375 C 12.972656 -1.757812 13.585938 -2.679688 14.015625 -3.859375 C 14.441406 -5.035156 14.65625 -6.382812 14.65625 -7.90625 C 14.65625 -9.4375 14.414062 -10.785156 13.9375 -11.953125 C 13.457031 -13.117188 12.800781 -14.015625 11.96875 -14.640625 C 11.144531 -15.273438 10.226562 -15.59375 9.21875 -15.59375 Z M 9.21875 -15.59375 "/></g></g></g><g fill="#ffffff" fill-opacity="1"><g transform="translate(279.043518, 83.01912)"><g><path d="M 6.609375 -16.0625 C 7.367188 -16.0625 7.96875 -15.976562 8.40625 -15.8125 C 8.84375 -15.644531 9.289062 -15.40625 9.75 -15.09375 C 10.132812 -14.851562 10.429688 -14.734375 10.640625 -14.734375 C 10.785156 -14.734375 10.898438 -14.820312 10.984375 -15 C 11.078125 -15.1875 11.148438 -15.476562 11.203125 -15.875 L 11.796875 -15.875 C 11.710938 -14.976562 11.671875 -13.394531 11.671875 -11.125 L 11.078125 -11.125 C 10.972656 -12.363281 10.570312 -13.410156 9.875 -14.265625 C 9.175781 -15.128906 8.164062 -15.5625 6.84375 -15.5625 C 5.925781 -15.5625 5.171875 -15.320312 4.578125 -14.84375 C 3.984375 -14.363281 3.6875 -13.753906 3.6875 -13.015625 C 3.6875 -12.472656 3.816406 -12.003906 4.078125 -11.609375 C 4.347656 -11.210938 4.691406 -10.875 5.109375 -10.59375 C 5.535156 -10.3125 6.140625 -9.960938 6.921875 -9.546875 L 7.765625 -9.09375 C 8.835938 -8.519531 9.695312 -8.007812 10.34375 -7.5625 C 10.988281 -7.113281 11.507812 -6.597656 11.90625 -6.015625 C 12.300781 -5.441406 12.5 -4.78125 12.5 -4.03125 C 12.5 -2.632812 11.992188 -1.550781 10.984375 -0.78125 C 9.972656 -0.0195312 8.710938 0.359375 7.203125 0.359375 C 6.378906 0.359375 5.703125 0.269531 5.171875 0.09375 C 4.648438 -0.0703125 4.148438 -0.300781 3.671875 -0.59375 C 3.285156 -0.832031 2.988281 -0.953125 2.78125 -0.953125 C 2.632812 -0.953125 2.515625 -0.859375 2.421875 -0.671875 C 2.335938 -0.492188 2.269531 -0.207031 2.21875 0.1875 L 1.625 0.1875 C 1.695312 -0.65625 1.734375 -2.550781 1.734375 -5.5 L 2.328125 -5.5 C 2.441406 -3.894531 2.867188 -2.601562 3.609375 -1.625 C 4.347656 -0.644531 5.484375 -0.15625 7.015625 -0.15625 C 7.878906 -0.15625 8.625 -0.398438 9.25 -0.890625 C 9.882812 -1.378906 10.203125 -2.109375 10.203125 -3.078125 C 10.203125 -3.640625 10.035156 -4.140625 9.703125 -4.578125 C 9.378906 -5.015625 8.941406 -5.40625 8.390625 -5.75 C 7.835938 -6.09375 7.070312 -6.523438 6.09375 -7.046875 C 4.675781 -7.765625 3.597656 -8.484375 2.859375 -9.203125 C 2.117188 -9.929688 1.75 -10.875 1.75 -12.03125 C 1.75 -13.300781 2.21875 -14.289062 3.15625 -15 C 4.09375 -15.707031 5.242188 -16.0625 6.609375 -16.0625 Z M 6.609375 -16.0625 "/></g></g></g><g fill="#ffffff" fill-opacity="1"><g transform="translate(290.654772, 83.01912)"><g><path d="M 15.40625 -15.6875 C 15.289062 -14.550781 15.234375 -13.535156 15.234375 -12.640625 C 15.234375 -11.753906 15.257812 -11.050781 15.3125 -10.53125 L 14.71875 -10.53125 C 14.613281 -11.738281 14.445312 -12.660156 14.21875 -13.296875 C 14 -13.929688 13.640625 -14.390625 13.140625 -14.671875 C 12.640625 -14.953125 11.925781 -15.09375 11 -15.09375 L 9.34375 -15.09375 L 9.34375 -3 C 9.34375 -2.269531 9.410156 -1.738281 9.546875 -1.40625 C 9.679688 -1.082031 9.921875 -0.859375 10.265625 -0.734375 C 10.617188 -0.617188 11.179688 -0.546875 11.953125 -0.515625 L 11.953125 0 C 11.054688 -0.0507812 9.789062 -0.078125 8.15625 -0.078125 C 6.4375 -0.078125 5.164062 -0.0507812 4.34375 0 L 4.34375 -0.515625 C 5.113281 -0.546875 5.671875 -0.617188 6.015625 -0.734375 C 6.359375 -0.859375 6.597656 -1.082031 6.734375 -1.40625 C 6.867188 -1.738281 6.9375 -2.269531 6.9375 -3 L 6.9375 -15.09375 L 5.296875 -15.09375 C 4.359375 -15.09375 3.640625 -14.953125 3.140625 -14.671875 C 2.648438 -14.390625 2.289062 -13.929688 2.0625 -13.296875 C 1.84375 -12.660156 1.679688 -11.738281 1.578125 -10.53125 L 0.984375 -10.53125 C 1.035156 -11.082031 1.0625 -11.785156 1.0625 -12.640625 C 1.0625 -13.535156 1 -14.550781 0.875 -15.6875 C 2.300781 -15.632812 4.726562 -15.609375 8.15625 -15.609375 C 11.5625 -15.609375 13.976562 -15.632812 15.40625 -15.6875 Z M 15.40625 -15.6875 "/></g></g></g><g fill="#ffffff" fill-opacity="1"><g transform="translate(304.743406, 83.01912)"><g><path d="M 13.78125 -3.046875 C 13.78125 -2.148438 13.84375 -1.132812 13.96875 0 C 12.84375 -0.0507812 10.957031 -0.078125 8.3125 -0.078125 C 5.125 -0.078125 2.710938 -0.0507812 1.078125 0 L 1.078125 -0.515625 C 1.703125 -0.546875 2.15625 -0.613281 2.4375 -0.71875 C 2.71875 -0.820312 2.910156 -1.019531 3.015625 -1.3125 C 3.117188 -1.601562 3.171875 -2.078125 3.171875 -2.734375 L 3.171875 -12.953125 C 3.171875 -13.609375 3.117188 -14.082031 3.015625 -14.375 C 2.910156 -14.664062 2.71875 -14.863281 2.4375 -14.96875 C 2.15625 -15.070312 1.703125 -15.140625 1.078125 -15.171875 L 1.078125 -15.6875 C 2.710938 -15.632812 5.125 -15.609375 8.3125 -15.609375 C 10.71875 -15.609375 12.429688 -15.632812 13.453125 -15.6875 C 13.328125 -14.65625 13.265625 -13.726562 13.265625 -12.90625 C 13.265625 -12.238281 13.289062 -11.707031 13.34375 -11.3125 L 12.75 -11.3125 C 12.632812 -12.71875 12.335938 -13.695312 11.859375 -14.25 C 11.390625 -14.8125 10.617188 -15.09375 9.546875 -15.09375 L 7.671875 -15.09375 C 7.046875 -15.09375 6.59375 -15.046875 6.3125 -14.953125 C 6.03125 -14.859375 5.835938 -14.664062 5.734375 -14.375 C 5.628906 -14.082031 5.578125 -13.609375 5.578125 -12.953125 L 5.578125 -8.15625 L 7.71875 -8.15625 C 8.269531 -8.15625 8.691406 -8.296875 8.984375 -8.578125 C 9.273438 -8.867188 9.472656 -9.179688 9.578125 -9.515625 C 9.679688 -9.847656 9.773438 -10.273438 9.859375 -10.796875 L 10.453125 -10.796875 C 10.398438 -10.203125 10.375 -9.5625 10.375 -8.875 L 10.375 -7.90625 C 10.375 -7.226562 10.425781 -6.257812 10.53125 -5 L 9.9375 -5 C 9.832031 -5.832031 9.632812 -6.476562 9.34375 -6.9375 C 9.050781 -7.40625 8.507812 -7.640625 7.71875 -7.640625 L 5.578125 -7.640625 L 5.578125 -2.734375 C 5.578125 -2.078125 5.628906 -1.601562 5.734375 -1.3125 C 5.835938 -1.019531 6.03125 -0.828125 6.3125 -0.734375 C 6.59375 -0.640625 7.046875 -0.59375 7.671875 -0.59375 L 9.546875 -0.59375 C 10.410156 -0.59375 11.09375 -0.726562 11.59375 -1 C 12.09375 -1.28125 12.46875 -1.722656 12.71875 -2.328125 C 12.976562 -2.941406 13.160156 -3.800781 13.265625 -4.90625 L 13.859375 -4.90625 C 13.804688 -4.4375 13.78125 -3.816406 13.78125 -3.046875 Z M 13.78125 -3.046875 "/></g></g></g><g fill="#ffffff" fill-opacity="1"><g transform="translate(317.903013, 83.01912)"><g><path d="M 7.671875 -15.171875 C 7.046875 -15.140625 6.59375 -15.070312 6.3125 -14.96875 C 6.03125 -14.863281 5.835938 -14.664062 5.734375 -14.375 C 5.628906 -14.082031 5.578125 -13.609375 5.578125 -12.953125 L 5.578125 -2.734375 C 5.578125 -2.078125 5.628906 -1.601562 5.734375 -1.3125 C 5.835938 -1.019531 6.03125 -0.828125 6.3125 -0.734375 C 6.59375 -0.640625 7.046875 -0.59375 7.671875 -0.59375 L 9.296875 -0.59375 C 10.484375 -0.59375 11.40625 -0.941406 12.0625 -1.640625 C 12.726562 -2.347656 13.128906 -3.519531 13.265625 -5.15625 L 13.859375 -5.15625 C 13.804688 -4.625 13.78125 -3.921875 13.78125 -3.046875 C 13.78125 -2.148438 13.84375 -1.132812 13.96875 0 C 12.84375 -0.0507812 10.957031 -0.078125 8.3125 -0.078125 C 5.125 -0.078125 2.710938 -0.0507812 1.078125 0 L 1.078125 -0.515625 C 1.703125 -0.546875 2.15625 -0.613281 2.4375 -0.71875 C 2.71875 -0.820312 2.910156 -1.019531 3.015625 -1.3125 C 3.117188 -1.601562 3.171875 -2.078125 3.171875 -2.734375 L 3.171875 -12.953125 C 3.171875 -13.609375 3.117188 -14.082031 3.015625 -14.375 C 2.910156 -14.664062 2.71875 -14.863281 2.4375 -14.96875 C 2.15625 -15.070312 1.703125 -15.140625 1.078125 -15.171875 L 1.078125 -15.6875 C 1.804688 -15.632812 2.910156 -15.609375 4.390625 -15.609375 C 5.765625 -15.609375 6.859375 -15.632812 7.671875 -15.6875 Z M 7.671875 -15.171875 "/></g></g></g><g fill="#ffffff" fill-opacity="1"><g transform="translate(330.507159, 83.01912)"><g/></g></g><g fill="#ffffff" fill-opacity="1"><g transform="translate(97.73814, 98.977014)"><g><path d="M 1.34375 0 L 1.34375 -9.234375 L 2.5 -9.234375 L 2.5 -1.109375 L 6.984375 -1.109375 L 6.984375 0 Z M 1.34375 0 "/></g></g></g><g fill="#ffffff" fill-opacity="1"><g transform="translate(111.787622, 98.977014)"><g><path d="M 1.34375 0 L 1.34375 -9.234375 L 2.5 -9.234375 L 2.5 0 Z M 1.34375 0 "/></g></g></g><g fill="#ffffff" fill-opacity="1"><g transform="translate(122.293149, 98.977014)"><g><path d="M 3.90625 0 L 0.21875 -9.234375 L 1.46875 -9.234375 L 3 -5.34375 L 4.4375 -1.671875 L 5.875 -5.34375 L 7.421875 -9.234375 L 8.65625 -9.234375 L 4.984375 0 Z M 3.90625 0 "/></g></g></g><g fill="#ffffff" fill-opacity="1"><g transform="translate(137.818182, 98.977014)"><g><path d="M 1.34375 0 L 1.34375 -9.234375 L 6.953125 -9.234375 L 6.953125 -8.15625 L 2.5 -8.15625 L 2.5 -5.234375 L 6.625 -5.234375 L 6.625 -4.171875 L 2.5 -4.171875 L 2.5 -1.078125 L 7.09375 -1.078125 L 7.09375 0 Z M 1.34375 0 "/></g></g></g><g fill="#ffffff" fill-opacity="1"><g transform="translate(152.420993, 98.977014)"><g/></g></g><g fill="#ffffff" fill-opacity="1"><g transform="translate(162.34684, 98.977014)"><g><path d="M 1.34375 0 L 1.34375 -9.234375 L 2.5 -9.234375 L 2.5 -1.109375 L 6.984375 -1.109375 L 6.984375 0 Z M 1.34375 0 "/></g></g></g><g fill="#ffffff" fill-opacity="1"><g transform="translate(176.396321, 98.977014)"><g><path d="M 0.21875 0 L 4.015625 -9.234375 L 5.109375 -9.234375 L 8.90625 0 L 7.671875 0 L 6.8125 -2.09375 L 2.3125 -2.09375 L 1.46875 0 Z M 2.75 -3.171875 L 6.375 -3.171875 L 4.5625 -7.609375 Z M 2.75 -3.171875 "/></g></g></g><g fill="#ffffff" fill-opacity="1"><g transform="translate(192.171676, 98.977014)"><g><path d="M 4.796875 0.15625 C 3.679688 0.15625 2.804688 -0.1875 2.171875 -0.875 C 1.546875 -1.570312 1.234375 -2.535156 1.234375 -3.765625 L 1.234375 -9.234375 L 2.390625 -9.234375 L 2.390625 -3.84375 C 2.390625 -2.894531 2.59375 -2.175781 3 -1.6875 C 3.414062 -1.207031 4.015625 -0.96875 4.796875 -0.96875 C 6.410156 -0.96875 7.21875 -1.925781 7.21875 -3.84375 L 7.21875 -9.234375 L 8.375 -9.234375 L 8.375 -3.765625 C 8.375 -2.535156 8.054688 -1.570312 7.421875 -0.875 C 6.785156 -0.1875 5.910156 0.15625 4.796875 0.15625 Z M 4.796875 0.15625 "/></g></g></g><g fill="#ffffff" fill-opacity="1"><g transform="translate(208.434479, 98.977014)"><g><path d="M 5.453125 0.171875 C 4.773438 0.171875 4.148438 0.0507812 3.578125 -0.1875 C 3.015625 -0.425781 2.519531 -0.753906 2.09375 -1.171875 C 1.675781 -1.597656 1.347656 -2.101562 1.109375 -2.6875 C 0.878906 -3.28125 0.765625 -3.921875 0.765625 -4.609375 C 0.765625 -5.304688 0.878906 -5.941406 1.109375 -6.515625 C 1.335938 -7.097656 1.660156 -7.601562 2.078125 -8.03125 C 2.503906 -8.46875 3 -8.804688 3.5625 -9.046875 C 4.132812 -9.285156 4.757812 -9.40625 5.4375 -9.40625 C 6.132812 -9.40625 6.78125 -9.273438 7.375 -9.015625 C 7.976562 -8.765625 8.5 -8.410156 8.9375 -7.953125 C 9.375 -7.492188 9.6875 -6.960938 9.875 -6.359375 L 8.609375 -6.359375 C 8.316406 -6.953125 7.898438 -7.410156 7.359375 -7.734375 C 6.816406 -8.066406 6.1875 -8.234375 5.46875 -8.234375 C 4.78125 -8.234375 4.171875 -8.078125 3.640625 -7.765625 C 3.109375 -7.460938 2.691406 -7.039062 2.390625 -6.5 C 2.097656 -5.957031 1.953125 -5.328125 1.953125 -4.609375 C 1.953125 -3.898438 2.101562 -3.269531 2.40625 -2.71875 C 2.707031 -2.175781 3.125 -1.75 3.65625 -1.4375 C 4.1875 -1.132812 4.796875 -0.984375 5.484375 -0.984375 C 6.109375 -0.984375 6.660156 -1.109375 7.140625 -1.359375 C 7.628906 -1.609375 8.023438 -1.945312 8.328125 -2.375 C 8.628906 -2.8125 8.820312 -3.320312 8.90625 -3.90625 L 5.140625 -3.90625 L 5.140625 -5.015625 L 10.15625 -5.015625 C 10.175781 -4.003906 9.988281 -3.109375 9.59375 -2.328125 C 9.195312 -1.546875 8.644531 -0.929688 7.9375 -0.484375 C 7.238281 -0.046875 6.410156 0.171875 5.453125 0.171875 Z M 5.453125 0.171875 "/></g></g></g><g fill="#ffffff" fill-opacity="1"><g transform="translate(225.962045, 98.977014)"><g><path d="M 7.390625 0 L 7.390625 -4.15625 L 2.5 -4.15625 L 2.5 0 L 1.34375 0 L 1.34375 -9.234375 L 2.5 -9.234375 L 2.5 -5.265625 L 7.390625 -5.265625 L 7.390625 -9.234375 L 8.5625 -9.234375 L 8.5625 0 Z M 7.390625 0 "/></g></g></g><g fill="#ffffff" fill-opacity="1"><g transform="translate(242.514688, 98.977014)"><g/></g></g><g fill="#ffffff" fill-opacity="1"><g transform="translate(252.440534, 98.977014)"><g><path d="M 1.34375 0 L 1.34375 -9.234375 L 2.5 -9.234375 L 2.5 -1.109375 L 6.984375 -1.109375 L 6.984375 0 Z M 1.34375 0 "/></g></g></g><g fill="#ffffff" fill-opacity="1"><g transform="translate(266.490016, 98.977014)"><g><path d="M 5.53125 0.171875 C 4.601562 0.171875 3.78125 -0.03125 3.0625 -0.4375 C 2.34375 -0.851562 1.78125 -1.421875 1.375 -2.140625 C 0.96875 -2.859375 0.765625 -3.679688 0.765625 -4.609375 C 0.765625 -5.554688 0.96875 -6.382812 1.375 -7.09375 C 1.78125 -7.8125 2.34375 -8.375 3.0625 -8.78125 C 3.78125 -9.195312 4.601562 -9.40625 5.53125 -9.40625 C 6.476562 -9.40625 7.304688 -9.195312 8.015625 -8.78125 C 8.734375 -8.375 9.296875 -7.8125 9.703125 -7.09375 C 10.117188 -6.382812 10.328125 -5.554688 10.328125 -4.609375 C 10.328125 -3.679688 10.117188 -2.859375 9.703125 -2.140625 C 9.296875 -1.421875 8.734375 -0.851562 8.015625 -0.4375 C 7.304688 -0.03125 6.476562 0.171875 5.53125 0.171875 Z M 1.953125 -4.609375 C 1.953125 -3.898438 2.101562 -3.269531 2.40625 -2.71875 C 2.707031 -2.175781 3.128906 -1.75 3.671875 -1.4375 C 4.210938 -1.132812 4.832031 -0.984375 5.53125 -0.984375 C 6.25 -0.984375 6.875 -1.132812 7.40625 -1.4375 C 7.945312 -1.75 8.367188 -2.175781 8.671875 -2.71875 C 8.972656 -3.269531 9.125 -3.898438 9.125 -4.609375 C 9.125 -5.335938 8.972656 -5.96875 8.671875 -6.5 C 8.367188 -7.039062 7.945312 -7.460938 7.40625 -7.765625 C 6.875 -8.078125 6.25 -8.234375 5.53125 -8.234375 C 4.832031 -8.234375 4.210938 -8.078125 3.671875 -7.765625 C 3.128906 -7.460938 2.707031 -7.039062 2.40625 -6.5 C 2.101562 -5.96875 1.953125 -5.335938 1.953125 -4.609375 Z M 1.953125 -4.609375 "/></g></g></g><g fill="#ffffff" fill-opacity="1"><g transform="translate(284.215202, 98.977014)"><g><path d="M 1.34375 0 L 1.34375 -9.234375 L 4.53125 -9.234375 C 5.476562 -9.234375 6.304688 -9.035156 7.015625 -8.640625 C 7.722656 -8.253906 8.273438 -7.710938 8.671875 -7.015625 C 9.066406 -6.328125 9.265625 -5.523438 9.265625 -4.609375 C 9.265625 -3.703125 9.066406 -2.898438 8.671875 -2.203125 C 8.273438 -1.515625 7.722656 -0.972656 7.015625 -0.578125 C 6.304688 -0.191406 5.476562 0 4.53125 0 Z M 2.5 -1.109375 L 4.53125 -1.109375 C 5.238281 -1.109375 5.859375 -1.253906 6.390625 -1.546875 C 6.921875 -1.835938 7.332031 -2.25 7.625 -2.78125 C 7.925781 -3.3125 8.078125 -3.921875 8.078125 -4.609375 C 8.078125 -5.316406 7.925781 -5.929688 7.625 -6.453125 C 7.320312 -6.972656 6.898438 -7.378906 6.359375 -7.671875 C 5.828125 -7.972656 5.203125 -8.125 4.484375 -8.125 L 2.5 -8.125 Z M 2.5 -1.109375 "/></g></g></g><g fill="#ffffff" fill-opacity="1"><g transform="translate(300.899597, 98.977014)"><g><path d="M 5.453125 0.171875 C 4.773438 0.171875 4.148438 0.0507812 3.578125 -0.1875 C 3.015625 -0.425781 2.519531 -0.753906 2.09375 -1.171875 C 1.675781 -1.597656 1.347656 -2.101562 1.109375 -2.6875 C 0.878906 -3.28125 0.765625 -3.921875 0.765625 -4.609375 C 0.765625 -5.304688 0.878906 -5.941406 1.109375 -6.515625 C 1.335938 -7.097656 1.660156 -7.601562 2.078125 -8.03125 C 2.503906 -8.46875 3 -8.804688 3.5625 -9.046875 C 4.132812 -9.285156 4.757812 -9.40625 5.4375 -9.40625 C 6.132812 -9.40625 6.78125 -9.273438 7.375 -9.015625 C 7.976562 -8.765625 8.5 -8.410156 8.9375 -7.953125 C 9.375 -7.492188 9.6875 -6.960938 9.875 -6.359375 L 8.609375 -6.359375 C 8.316406 -6.953125 7.898438 -7.410156 7.359375 -7.734375 C 6.816406 -8.066406 6.1875 -8.234375 5.46875 -8.234375 C 4.78125 -8.234375 4.171875 -8.078125 3.640625 -7.765625 C 3.109375 -7.460938 2.691406 -7.039062 2.390625 -6.5 C 2.097656 -5.957031 1.953125 -5.328125 1.953125 -4.609375 C 1.953125 -3.898438 2.101562 -3.269531 2.40625 -2.71875 C 2.707031 -2.175781 3.125 -1.75 3.65625 -1.4375 C 4.1875 -1.132812 4.796875 -0.984375 5.484375 -0.984375 C 6.109375 -0.984375 6.660156 -1.109375 7.140625 -1.359375 C 7.628906 -1.609375 8.023438 -1.945312 8.328125 -2.375 C 8.628906 -2.8125 8.820312 -3.320312 8.90625 -3.90625 L 5.140625 -3.90625 L 5.140625 -5.015625 L 10.15625 -5.015625 C 10.175781 -4.003906 9.988281 -3.109375 9.59375 -2.328125 C 9.195312 -1.546875 8.644531 -0.929688 7.9375 -0.484375 C 7.238281 -0.046875 6.410156 0.171875 5.453125 0.171875 Z M 5.453125 0.171875 "/></g></g></g><g fill="#ffffff" fill-opacity="1"><g transform="translate(318.427175, 98.977014)"><g><path d="M 1.34375 0 L 1.34375 -9.234375 L 6.953125 -9.234375 L 6.953125 -8.15625 L 2.5 -8.15625 L 2.5 -5.234375 L 6.625 -5.234375 L 6.625 -4.171875 L 2.5 -4.171875 L 2.5 -1.078125 L 7.09375 -1.078125 L 7.09375 0 Z M 1.34375 0 "/></g></g></g><path fill="#ffffff" d="M 213.933594 131.355469 C 213.816406 127.335938 214.371094 128.230469 210.851562 126.300781 C 214.871094 126.183594 213.953125 126.738281 215.902344 123.21875 C 216.023438 127 215.546875 126.421875 218.390625 127.953125 C 264.914062 134.457031 309.386719 130.957031 350.957031 113.316406 C 310.261719 134.714844 265.628906 137.578125 218.410156 128.292969 C 215.070312 128.351562 215.785156 128.011719 213.933594 131.355469 Z M 210.433594 119.5 C 210.136719 117.09375 210.535156 117.609375 208.304688 116.617188 C 210.710938 116.335938 210.195312 116.714844 211.191406 114.488281 C 211.46875 116.914062 211.089844 116.398438 213.320312 117.371094 C 210.910156 117.671875 211.410156 117.292969 210.433594 119.5 Z M 210.433594 119.5 " fill-opacity="1" fill-rule="evenodd"/><g clip-path="url(#9e4b58f363)"><path fill="#ffffff" d="M 358.710938 81.96875 C 360.164062 84.15625 360.921875 86.402344 360.921875 88.730469 C 360.921875 107.109375 313.304688 121.988281 254.589844 121.988281 C 244.605469 121.988281 234.9375 121.570312 225.789062 120.753906 C 220.539062 118.464844 221.453125 119.558594 220.738281 113.492188 C 218.191406 119.242188 219.523438 118.265625 213.277344 119.003906 C 219.027344 121.550781 218.03125 120.214844 218.789062 126.460938 C 221.273438 120.8125 220.042969 121.648438 225.867188 120.992188 C 238.082031 122.582031 251.46875 123.457031 265.507812 123.457031 C 322.59375 123.457031 368.875 108.976562 368.875 91.136719 C 368.875 80.65625 354.199219 74.09375 345.546875 71.507812 C 342.003906 70.433594 338.367188 69.695312 334.566406 69.316406 C 342.285156 70.609375 354 74.828125 358.710938 81.96875 Z M 206.4375 127.019531 C 206.039062 123.597656 206.574219 124.332031 203.414062 122.941406 C 206.835938 122.523438 206.117188 123.058594 207.511719 119.917969 C 207.910156 123.339844 207.371094 122.601562 210.535156 123.996094 C 207.113281 124.414062 207.828125 123.875 206.4375 127.019531 Z M 206.4375 127.019531 " fill-opacity="1" fill-rule="evenodd"/></g></svg>